<?xml version="1.0" standalone="no"?>
<!DOCTYPE svg PUBLIC "-//W3C//DTD SVG 1.1//EN" "http://www.w3.org/Graphics/SVG/1.1/DTD/svg11.dtd" >
<svg xmlns="http://www.w3.org/2000/svg" xmlns:svg="http://www.w3.org/2000/svg" xmlns:xlink="http://www.w3.org/1999/xlink" viewBox="0 0 2048 2048"><path d="M222.79 158.58Q378.05 102 423.7 156.96Q600.18 200.74 596.13 191.82Q669.77 320.4 603.77 389.71Q608.79 347.41 617.12 462.71Q509.2 478.29 469.95 490.94Q402.03 525.44 418.66 409.13Q314.71 330.46 316.36 312.06Q252.75 151.67 205.38 124.78ZM129 526.1Q196.36 541.34 304.05 612.39Q387 659.85 455.65 683.15Q460.39 759.06 471.92 838.44Q499.95 832.04 422.05 928.88Q346.11 893.55 321.54 883.18Q293.7 946.96 206.72 852.71Q225.56 809.98 171.68 747.49Q151.4 585.96 99.86 529.52ZM183.99 1423.99Q214.87 1404.23 284.7 1411.63Q249.24 1423.58 314.92 1348.28Q261.33 1304.54 323.08 1266.78Q325.27 1274.56 307.22 1235.98Q371.19 1211.81 410.44 1144.32Q440.34 1035.5 482.24 863.79Q629.88 649.48 688.93 467.41L703.87 440.04Q720.64 520.41 662.09 654.78Q652.09 763.23 614.32 846.43Q563.01 927.28 605.78 1042.75Q562.92 1057.63 525.97 1185.85Q540.46 1223.66 515.19 1271.39Q476.42 1290.67 472.19 1422.28Q454.5 1476.66 442.95 1446.99Q481.5 1498.34 466.66 1567.37Q522.42 1608.27 539.99 1656.51Q507.64 1633.47 544.1 1690.57Q531.9 1807.64 618.36 1810.7Q527.39 1944.6 503.34 1988.15Q507.54 1997.76 329.48 2065.88Q297.1 2043.26 268.79 2005.02Q253.1 1978.92 274.48 1965.55Q285.28 1807.84 297.4 1683.01Q308.63 1663.35 230.49 1602.53Q241.79 1475.41 170.18 1424.17Q202.68 1433.23 145.6 1419.79V1385.4Q64.05 1370.12 121.01 1357.13Q172.25 1381.24 201.73 1395.31Q182.41 1363.58 177.67 1425.56ZM1169.89 557.12H1056.33V762.5H1240.36ZM1511.23 551.33V805.27H1664.13V568.61ZM1255.66 544.27V283.68H1084.18V509.19ZM1521.18 470.52H1713.95V253.16H1506.45ZM1073.08 1022.93V1264.3H1542.91V1036.39ZM1103.48 1012.61H1551.31L1629.24 902.59V837.82H1006.85V903.53Q1070.97 901.95 988.87 938.41Q1033.89 898.37 966.14 963.93ZM1130.74 1315.93V1453.82H1620.28V1255.71ZM749.66 230.5V128.38L1010.02 250.92H1625.98L1810.21 97.78L2009.43 249.61Q2032.2 321.19 2034.75 260.47Q1976.7 308.05 1970.44 277.15V855.12Q1908.51 887.26 1858.34 863.64Q1802.37 863.11 1782.52 891.11L1941.92 1061.64Q1923.05 1133.53 1915.49 1085.85Q1905.69 1145.43 1862.38 1137.13V1665.21Q1878.69 1835.23 1874.46 1889.96Q1781.46 1907.27 1751.35 1941.9Q1701 2004.56 1580.82 2075.13Q1513.53 1939.56 1560.11 1907.4Q1550.33 1870.85 1541.28 1819.47Q1444.52 1763.61 1423.98 1744.59Q1414.91 1778.86 1300.04 1700.99V1705.62Q1391.62 1756.5 1319.49 1741.91Q1385.06 1678.24 1408.31 1739.17Q1464.16 1748.76 1478.24 1670.76Q1566.9 1743.89 1553.7 1757.13Q1624.95 1762.86 1564.96 1694.35V1492.11H1096.36V1938.05Q1158.66 1989.76 1101.62 2017.35Q1044.98 1981.16 898.92 2024.7H835.56V909.45H796.52H798.27Z" fill="black"></path></svg>