<?xml version="1.0" standalone="no"?>
<!DOCTYPE svg PUBLIC "-//W3C//DTD SVG 1.1//EN" "http://www.w3.org/Graphics/SVG/1.1/DTD/svg11.dtd" >
<svg xmlns="http://www.w3.org/2000/svg" xmlns:svg="http://www.w3.org/2000/svg" xmlns:xlink="http://www.w3.org/1999/xlink" viewBox="0 0 2048 2048"><path d="M186.0 88.0Q340.0 89.0 431.0 123.0Q522.0 157.0 560.5 207.5Q599.0 258.0 596.5 310.0Q594.0 362.0 560.0 399.5Q526.0 437.0 472.0 445.0Q418.0 453.0 354.0 416.0Q331.0 329.0 277.5 243.5Q224.0 158.0 172.0 98.0ZM61.0 536.0Q211.0 543.0 296.5 580.0Q382.0 617.0 415.5 668.0Q449.0 719.0 442.5 769.0Q436.0 819.0 399.5 854.0Q363.0 889.0 308.0 893.5Q253.0 898.0 192.0 856.0Q182.0 771.0 139.0 687.0Q96.0 603.0 47.0 547.0ZM176.0 1370.0Q202.0 1370.0 213.5 1364.5Q225.0 1359.0 244.0 1327.0Q259.0 1303.0 272.5 1280.0Q286.0 1257.0 309.0 1210.5Q332.0 1164.0 376.0 1073.0Q420.0 982.0 495.0 823.5Q570.0 665.0 688.0 416.0L717.0 424.0Q693.0 498.0 665.0 592.0Q637.0 686.0 608.0 785.5Q579.0 885.0 553.0 977.0Q527.0 1069.0 508.0 1139.5Q489.0 1210.0 481.0 1245.0Q469.0 1299.0 459.0 1353.5Q449.0 1408.0 450.0 1448.0Q452.0 1492.0 467.0 1529.0Q482.0 1566.0 501.0 1604.5Q520.0 1643.0 533.5 1692.0Q547.0 1741.0 545.0 1810.0Q543.0 1892.0 486.0 1943.5Q429.0 1995.0 342.0 1995.0Q302.0 1995.0 262.0 1972.0Q222.0 1949.0 207.0 1888.0Q227.0 1782.0 232.0 1686.0Q237.0 1590.0 226.5 1524.0Q216.0 1458.0 190.0 1442.0Q146.0 1410.0 82.0 1407.0V1370.0Q82.0 1370.0 100.5 1370.0Q119.0 1370.0 142.0 1370.0Q165.0 1370.0 176.0 1370.0ZM1182.0 526.0H1009.0V749.0H1182.0ZM1454.0 526.0V749.0H1640.0V526.0ZM1182.0 469.0V252.0H1009.0V469.0ZM1454.0 469.0H1640.0V252.0H1454.0ZM1091.0 1038.0V1212.0H1556.0V1038.0ZM1120.0 981.0H1534.0L1640.0 858.0V807.0H1009.0V860.0Q1009.0 868.0 985.0 882.0Q961.0 896.0 915.0 905.0ZM1091.0 1270.0V1450.0H1556.0V1270.0ZM741.0 194.0V86.0L1030.0 194.0H1632.0L1761.0 49.0L2001.0 231.0Q1991.0 243.0 1973.5 253.5Q1956.0 264.0 1921.0 270.0V821.0Q1921.0 829.0 1866.0 851.0Q1811.0 873.0 1714.0 876.0L1933.0 1042.0Q1922.0 1056.0 1900.0 1070.0Q1878.0 1084.0 1841.0 1091.0V1685.0Q1841.0 1777.0 1819.0 1842.5Q1797.0 1908.0 1726.0 1947.0Q1655.0 1986.0 1507.0 1999.0Q1503.0 1929.0 1494.5 1878.5Q1486.0 1828.0 1466.0 1796.0Q1446.0 1764.0 1413.0 1741.0Q1380.0 1718.0 1313.0 1704.0V1677.0Q1313.0 1677.0 1339.0 1678.5Q1365.0 1680.0 1401.5 1682.0Q1438.0 1684.0 1471.5 1685.5Q1505.0 1687.0 1519.0 1687.0Q1556.0 1687.0 1556.0 1650.0V1507.0H1091.0V1913.0Q1091.0 1926.0 1030.5 1959.0Q970.0 1992.0 862.0 1992.0H809.0V919.0H790.0H741.0Z" fill="black"></path></svg>